PathFileType	4	(X/Y/Z)	s03c0402.trc
DataRate	CameraRate	NumFrames	NumMarkers	Units	OrigDataRate	OrigDataStartFrame	OrigNumFrames
200	200	4	50	mm	200	500	2000
Frame#	Time	racr			lacr			c7			jug			rlel			rdr			llel			ldr			s2			lic			ric			lasi			rasi			rpsi			lpsi			rgt			lgt			rth1			rth2			rth3			rth4			rlfc			rmfc			rsh1			rsh2			rsh3			rsh4			rlmal			rcal			rtoe			rmt5			rmt1			lth1			lth2			lth4			lth3			llfc			lmfc			lsh1			lsh2			lsh3			lsh4			llmal			lcal			ltoe			lmt1			lmt5			SBIKE			LBIKE			RBIKE			
		X1	Y1	Z1	X2	Y2	Z2	X3	Y3	Z3	X4	Y4	Z4	X5	Y5	Z5	X6	Y6	Z6	X7	Y7	Z7	X8	Y8	Z8	X9	Y9	Z9	X10	Y10	Z10	X11	Y11	Z11	X12	Y12	Z12	X13	Y13	Z13	X14	Y14	Z14	X15	Y15	Z15	X16	Y16	Z16	X17	Y17	Z17	X18	Y18	Z18	X19	Y19	Z19	X20	Y20	Z20	X21	Y21	Z21	X22	Y22	Z22	X23	Y23	Z23	X24	Y24	Z24	X25	Y25	Z25	X26	Y26	Z26	X27	Y27	Z27	X28	Y28	Z28	X29	Y29	Z29	X30	Y30	Z30	X31	Y31	Z31	X32	Y32	Z32	X33	Y33	Z33	X34	Y34	Z34	X35	Y35	Z35	X36	Y36	Z36	X37	Y37	Z37	X38	Y38	Z38	X39	Y39	Z39	X40	Y40	Z40	X41	Y41	Z41	X42	Y42	Z42	X43	Y43	Z43	X44	Y44	Z44	X45	Y45	Z45	X46	Y46	Z46	X47	Y47	Z47	X48	Y48	Z48	X49	Y49	Z49	X50	Y50	Z50	
500	2.5000	831.283401	1472.832999	-178.910150	766.377542	1515.994170	-513.401383	737.470417	1592.229725	-330.076924	759.970801	1421.259060	-341.580737	700.388955	1250.101871	-14.366322	754.065535	975.946083	-34.086624	642.710021	1241.837025	-553.831281	736.474856	976.511384	-448.129910	208.054115	1350.558401	-236.857079	351.128950	1369.603879	-437.250492	410.853884	1328.992430	-79.660945	376.514383	1291.145840	-393.750452	415.518022	1258.726374	-127.974640	254.970228	1383.024837	-187.453294	244.771314	1397.646371	-269.360904	294.418195	1218.829093	-63.930947	314.932398	1275.450791	-453.851810	298.742648	1062.812127	-52.437356	330.854378	980.118079	-55.571926	321.039134	895.582101	-64.012585	366.500165	985.418636	-63.259595	314.805050	767.119808	-91.375641	326.663431	744.965295	-208.271951	242.242301	618.128509	-56.571257	232.855710	529.846232	-64.572610	179.856225	458.741238	-63.419628	260.978724	519.835881	-88.432599	125.240431	342.409036	-77.388393	58.514716	350.750241	-115.558848	264.788662	117.492323	-116.308385	174.139695	194.987659	-47.112397	202.978738	187.070317	-159.755397	403.794757	1145.394177	-478.527163	472.608194	1092.679257	-480.503082	500.737761	1114.351914	-470.604026	506.552523	1010.356459	-479.357724	594.653173	906.165037	-458.484108	592.921501	895.594955	-331.106319	470.772565	784.995231	-475.237117	428.391782	713.840789	-452.832610	349.962791	668.119349	-447.985866	450.762289	696.096294	-427.115894	255.842354	581.700647	-426.043347	174.455885	558.588924	-378.244450	467.699466	459.427916	-365.222599	376.032126	486.040150	-324.760783	349.116177	470.535087	-441.854638	-220.058530	944.180994	-238.171311	-14.475341	80.514676	-437.503051	-14.406224	80.956801	-37.143001	
501	2.5050	831.719946	1472.406125	-180.586165	766.007441	1514.319013	-515.289724	737.875935	1591.602282	-331.936804	759.800773	1420.414406	-342.928340	700.997386	1250.173057	-15.598534	754.106538	975.888328	-34.187677	640.954501	1240.707869	-555.447745	736.357951	976.689959	-448.421150	207.909908	1350.684524	-238.225972	351.197992	1369.371336	-438.652755	410.691658	1330.011089	-80.272882	376.328737	1291.588200	-395.109905	415.277400	1259.590467	-128.132484	254.794786	1383.570096	-188.523991	244.717867	1397.602994	-270.799002	295.074414	1219.656748	-64.355401	314.902970	1274.595007	-453.952147	301.537299	1063.312468	-52.714884	334.319667	980.913980	-56.166124	325.261388	896.333033	-64.513531	369.870878	986.543684	-63.703346	319.289483	767.741884	-90.955732	330.377842	745.781727	-208.017275	243.942727	619.484244	-56.141683	233.293104	531.417775	-64.365553	179.216929	461.057652	-63.647271	261.394110	521.004333	-88.097930	123.188155	345.826966	-77.728628	56.427636	354.277676	-116.442909	260.825975	119.381600	-115.967080	170.498433	197.640875	-47.317902	199.646907	189.401299	-159.926479	403.708958	1144.250372	-478.878557	472.374015	1091.335681	-480.389802	500.569170	1113.016414	-470.656097	506.154385	1008.986086	-478.863735	593.912017	904.731547	-457.640448	592.148056	894.368188	-330.293480	471.082885	782.552687	-474.594187	429.303282	711.038325	-452.128171	351.270249	664.639837	-447.416716	451.737266	693.512311	-426.254441	257.709911	577.660012	-425.599501	176.339478	553.412993	-377.874399	471.179861	458.218691	-365.637561	379.074080	483.370809	-324.707308	352.267738	467.767850	-441.831065	-220.037999	944.183415	-238.151012	-14.466974	80.499073	-437.490717	-14.406175	80.964267	-37.126232	
502	2.5100	832.193536	1472.041928	-182.133321	765.668036	1512.485564	-517.097767	738.223286	1590.901108	-333.720528	759.603088	1419.571713	-344.259653	701.517262	1250.179921	-16.707871	754.154735	975.866109	-34.302230	639.177774	1239.501605	-556.952427	736.167722	976.891298	-448.788997	207.787128	1350.742072	-239.316911	351.186408	1368.908145	-439.543928	410.528848	1331.073654	-80.828810	376.280888	1291.422279	-395.951745	415.304854	1260.449692	-128.517046	254.605168	1383.886258	-189.773931	244.468218	1397.692426	-271.749762	295.658299	1220.412758	-64.687256	314.773426	1273.782858	-454.578974	304.350745	1063.819905	-53.051428	337.972465	981.667177	-56.689119	329.693122	897.040708	-64.882856	373.458258	987.520466	-64.285604	324.130766	768.420020	-90.562643	334.434556	746.663713	-207.556431	245.778281	620.910330	-55.707279	233.828374	533.049973	-64.152675	178.611076	463.555086	-63.838088	261.895543	522.184975	-87.666294	120.926489	349.151828	-78.330391	54.414819	357.976961	-117.467449	256.807451	121.299164	-115.637480	166.746111	200.401733	-47.751213	196.417588	191.814215	-160.040988	403.544636	1143.017272	-479.176600	472.105592	1089.908503	-480.305173	500.314897	1111.541735	-470.695335	505.709525	1007.476011	-478.353631	593.217250	903.115869	-456.468780	591.172693	893.065416	-329.680881	471.338604	779.943117	-473.947901	430.109954	708.159386	-451.430992	352.650516	661.194681	-446.718819	452.686263	690.916754	-425.527392	259.615821	573.467640	-425.186619	178.264478	548.212304	-377.554930	474.344557	456.436964	-365.449441	382.073565	480.539214	-324.603354	355.417085	464.851113	-441.780166	-220.017499	944.179640	-238.142216	-14.465354	80.522887	-437.498929	-14.403840	80.960693	-37.135188	
503	2.5150	832.510586	1471.716436	-183.557562	765.331871	1510.770800	-518.856111	738.519020	1590.128930	-335.468563	759.414764	1418.632422	-345.458902	701.981250	1250.233351	-17.748928	754.142671	975.876995	-34.413806	637.355601	1238.374712	-558.606455	735.939589	977.069511	-449.194227	207.528863	1349.977071	-240.184047	351.071837	1368.481903	-440.836173	410.335763	1332.080184	-81.415717	376.171719	1291.212520	-396.749609	415.263458	1261.164408	-128.883590	254.401385	1384.241098	-190.980450	244.266077	1397.546202	-272.890913	296.439980	1220.979668	-65.005346	314.610642	1272.914096	-455.232850	307.309138	1064.260051	-53.376381	341.699158	982.479157	-57.180817	334.277691	897.809744	-65.127575	377.011893	988.737185	-64.867044	329.345684	768.984187	-90.186763	338.680049	747.559193	-207.117830	247.672611	622.513714	-55.182611	234.369766	534.756659	-63.921407	178.129846	466.236872	-64.006691	262.523010	523.614446	-87.114059	118.767686	352.579501	-78.978291	52.522873	361.783774	-118.566316	252.968878	123.536080	-115.113388	163.260170	203.508235	-47.846925	193.338114	194.367828	-160.093325	403.273309	1141.672879	-479.455069	471.654753	1088.429269	-480.257695	499.981625	1110.036615	-470.724875	505.171304	1005.854946	-477.846953	592.342436	901.464980	-455.601101	590.247059	891.682156	-328.951739	471.568113	777.344485	-473.307578	431.275471	705.053983	-451.056949	353.927932	657.509407	-446.196907	453.397350	688.260797	-424.553345	261.493642	569.166210	-424.779902	180.408792	543.048279	-377.352098	477.557054	454.539943	-365.569700	385.009323	477.598478	-324.435821	358.477543	461.800837	-441.720919	-219.990365	944.193435	-238.142172	-14.453876	80.563702	-437.446864	-14.398049	80.951033	-37.113498	
